<svg width="512" height="512" viewBox="0 0 512 512" fill="none" xmlns="http://www.w3.org/2000/svg" role="img" aria-label="HomeVault">
  <defs>
    <linearGradient id="hv-tile" x1="0" y1="0" x2="512" y2="512" gradientUnits="userSpaceOnUse">
      <stop offset="0" stop-color="#2f7a5a"/><stop offset="1" stop-color="#214e3d"/>
    </linearGradient>
    <linearGradient id="hv-gold" x1="160" y1="168" x2="352" y2="360" gradientUnits="userSpaceOnUse">
      <stop offset="0" stop-color="#e7be77"/><stop offset="1" stop-color="#d6a85d"/>
    </linearGradient>
  </defs>

  <rect width="512" height="512" rx="112" fill="url(#hv-tile)"/>

  <!-- Safe-door frame -->
  <rect x="88" y="88" width="336" height="336" rx="72" fill="#1c4536" fill-opacity="0.55"
        stroke="#fbf7ee" stroke-width="13"/>
  <!-- Corner bolts -->
  <circle cx="138" cy="138" r="13" fill="url(#hv-gold)"/>
  <circle cx="374" cy="138" r="13" fill="url(#hv-gold)"/>
  <circle cx="138" cy="374" r="13" fill="url(#hv-gold)"/>
  <circle cx="374" cy="374" r="13" fill="url(#hv-gold)"/>

  <!-- Home with a keyhole door (vault) -->
  <path fill="url(#hv-gold)" fill-rule="evenodd" d="
    M256 168 L350 258 a14 14 0 0 1 -9 24 L334 282 L334 348 a16 16 0 0 1 -16 16 L194 364 a16 16 0 0 1 -16 -16 L178 282 L171 282 a14 14 0 0 1 -9 -24 Z
    M256 286 a26 26 0 0 0 -11 49.5 L237 360 L275 360 L267 335.5 A26 26 0 0 0 256 286 Z
  "/>
</svg>
